<svg width="696" height="192" viewBox="0 0 696 192" fill="none" xmlns="http://www.w3.org/2000/svg">
<g filter="url(#filter0_d_302_6)">
<path d="M4.84 95.56C4.84 86.6 6.632 78.6213 10.216 71.624C13.8853 64.6267 19.0907 59.208 25.832 55.368C32.5733 51.4427 40.5093 49.48 49.64 49.48C57.4907 49.48 64.488 50.9733 70.632 53.96C76.8613 56.8613 81.896 61 85.736 66.376C89.6613 71.752 92.264 78.024 93.544 85.192H63.592C62.2267 82.2053 60.264 79.9013 57.704 78.28C55.2293 76.5733 52.3707 75.72 49.128 75.72C44.3493 75.72 40.552 77.512 37.736 81.096C35.0053 84.68 33.64 89.5013 33.64 95.56C33.64 101.619 35.0053 106.44 37.736 110.024C40.552 113.608 44.3493 115.4 49.128 115.4C52.3707 115.4 55.2293 114.589 57.704 112.968C60.264 111.261 62.2267 108.915 63.592 105.928H93.544C92.264 113.096 89.6613 119.368 85.736 124.744C81.896 130.12 76.8613 134.301 70.632 137.288C64.488 140.189 57.4907 141.64 49.64 141.64C40.5093 141.64 32.5733 139.72 25.832 135.88C19.0907 131.955 13.8853 126.493 10.216 119.496C6.632 112.499 4.84 104.52 4.84 95.56ZM149.343 141L132.319 108.488H132.191V141H103.775V50.376H146.015C153.354 50.376 159.626 51.6987 164.831 54.344C170.036 56.904 173.919 60.4453 176.479 64.968C179.124 69.4053 180.447 74.44 180.447 80.072C180.447 86.1307 178.74 91.5067 175.327 96.2C171.999 100.893 167.178 104.264 160.863 106.312L180.575 141H149.343ZM132.191 89.544H143.455C146.186 89.544 148.234 88.9467 149.599 87.752C150.964 86.472 151.647 84.5093 151.647 81.864C151.647 79.4747 150.922 77.5973 149.471 76.232C148.106 74.8667 146.1 74.184 143.455 74.184H132.191V89.544ZM217.941 73.032V84.168H246.101V105.544H217.941V118.344H249.941V141H189.525V50.376H249.941V73.032H217.941ZM318.762 127.304H288.554L284.074 141H254.25L287.402 50.376H320.17L353.194 141H323.242L318.762 127.304ZM311.85 105.928L303.658 80.712L295.466 105.928H311.85ZM430.818 50.376V72.904H406.754V141H378.338V72.904H354.53V50.376H430.818ZM482.685 141.896C474.152 141.896 466.301 139.891 459.133 135.88C452.05 131.869 446.418 126.323 442.237 119.24C438.056 112.157 435.965 104.179 435.965 95.304C435.965 86.4293 438.056 78.4507 442.237 71.368C446.418 64.2853 452.05 58.7813 459.133 54.856C466.301 50.8453 474.152 48.84 482.685 48.84C491.218 48.84 499.026 50.8453 506.109 54.856C513.192 58.7813 518.781 64.2853 522.877 71.368C527.058 78.4507 529.149 86.4293 529.149 95.304C529.149 104.179 527.058 112.157 522.877 119.24C518.781 126.323 513.149 131.869 505.981 135.88C498.898 139.891 491.133 141.896 482.685 141.896ZM482.685 115.4C488.317 115.4 492.669 113.608 495.741 110.024C498.813 106.355 500.349 101.448 500.349 95.304C500.349 89.0747 498.813 84.168 495.741 80.584C492.669 76.9147 488.317 75.08 482.685 75.08C476.968 75.08 472.573 76.9147 469.501 80.584C466.429 84.168 464.893 89.0747 464.893 95.304C464.893 101.448 466.429 106.355 469.501 110.024C472.573 113.608 476.968 115.4 482.685 115.4ZM584.968 141L567.944 108.488H567.816V141H539.4V50.376H581.64C588.979 50.376 595.251 51.6987 600.456 54.344C605.661 56.904 609.544 60.4453 612.104 64.968C614.749 69.4053 616.072 74.44 616.072 80.072C616.072 86.1307 614.365 91.5067 610.952 96.2C607.624 100.893 602.803 104.264 596.488 106.312L616.2 141H584.968ZM567.816 89.544H579.08C581.811 89.544 583.859 88.9467 585.224 87.752C586.589 86.472 587.272 84.5093 587.272 81.864C587.272 79.4747 586.547 77.5973 585.096 76.232C583.731 74.8667 581.725 74.184 579.08 74.184H567.816V89.544Z" fill="#383737"/>
<path d="M515.558 87.5007C521.866 91.4113 521.866 100.589 515.558 104.499L476.086 128.969C469.425 133.099 460.817 128.308 460.817 120.47L460.817 71.5299C460.817 63.6919 469.425 58.9008 476.086 63.0307L515.558 87.5007Z" fill="url(#paint0_linear_302_6)"/>
<path d="M666.201 112.531C666.572 110.362 667.626 108.567 669.365 107.147C671.104 105.727 673.11 105 675.383 104.966C677.436 104.935 679.258 105.421 680.85 106.423C682.405 107.39 683.637 108.82 684.546 110.713C685.454 112.606 685.929 114.854 685.968 117.457L686.219 134.01L647.833 134.592L647.593 118.753C647.554 116.15 647.942 113.907 648.756 112.025C649.571 110.106 650.722 108.658 652.211 107.682C653.699 106.669 655.397 106.149 657.303 106.12C659.539 106.086 661.418 106.663 662.94 107.85C664.461 109 665.548 110.56 666.201 112.531ZM663.555 126.652L663.448 119.613C663.42 117.78 662.996 116.375 662.174 115.397C661.316 114.42 660.117 113.943 658.577 113.966C657.037 113.99 655.853 114.503 655.025 115.505C654.197 116.508 653.796 117.926 653.824 119.759L653.931 126.798L663.555 126.652ZM679.715 118.652C679.687 116.782 679.225 115.341 678.33 114.327C677.434 113.277 676.179 112.765 674.566 112.789C672.916 112.814 671.641 113.383 670.741 114.497C669.805 115.612 669.351 117.104 669.379 118.973L669.494 126.563L679.833 126.406L679.715 118.652ZM647.181 91.5547L685.567 90.9732L685.683 98.6723L647.298 99.2538L647.181 91.5547ZM646.67 57.8259L652.885 57.7318L653.04 67.9606L685.211 67.4733L685.328 75.1724L653.156 75.6597L653.311 85.8885L647.097 85.9827L646.67 57.8259Z" fill="#383737"/>
</g>
<defs>
<filter id="filter0_d_302_6" x="0.839844" y="48.8398" width="689.379" height="101.057" filterUnits="userSpaceOnUse" color-interpolation-filters="sRGB">
<feFlood flood-opacity="0" result="BackgroundImageFix"/>
<feColorMatrix in="SourceAlpha" type="matrix" values="0 0 0 0 0 0 0 0 0 0 0 0 0 0 0 0 0 0 127 0" result="hardAlpha"/>
<feOffset dy="4"/>
<feGaussianBlur stdDeviation="2"/>
<feComposite in2="hardAlpha" operator="out"/>
<feColorMatrix type="matrix" values="0 0 0 0 0 0 0 0 0 0 0 0 0 0 0 0 0 0 0.25 0"/>
<feBlend mode="normal" in2="BackgroundImageFix" result="effect1_dropShadow_302_6"/>
<feBlend mode="normal" in="SourceGraphic" in2="effect1_dropShadow_302_6" result="shape"/>
</filter>
<linearGradient id="paint0_linear_302_6" x1="529.268" y1="96" x2="438" y2="96" gradientUnits="userSpaceOnUse">
<stop stop-color="#78E666"/>
<stop offset="1" stop-color="#28B487"/>
</linearGradient>
</defs>
</svg>
